<svg width="94" height="38" viewBox="0 0 94 38" fill="none" xmlns="http://www.w3.org/2000/svg">
<path d="M21.3065 13.6118L16.9462 27.0268H13.6331L10.7008 17.9429L7.67337 27.0268H4.37934L0 13.6118H3.19882L6.20725 23.0407L9.34894 13.6118H12.2051L15.2516 23.1173L18.3552 13.6118H21.3065Z" fill="#FFD22E"/>
<path d="M32.0925 21.9103C32.0925 21.9486 32.0734 22.2169 32.0353 22.7152H24.2858C24.4253 23.354 24.7555 23.8587 25.2759 24.2292C25.7963 24.5997 26.4438 24.785 27.2181 24.785C27.7512 24.785 28.2209 24.7083 28.6271 24.555C29.0459 24.3889 29.433 24.1334 29.7885 23.7884L31.3689 25.5132C30.4042 26.6247 28.9952 27.1805 27.1418 27.1805C25.9867 27.1805 24.9648 26.9569 24.0763 26.5098C23.1877 26.0498 22.5022 25.4174 22.02 24.6125C21.5375 23.8076 21.2964 22.8941 21.2964 21.872C21.2964 20.8627 21.5312 19.9556 22.0009 19.1507C22.4832 18.333 23.137 17.7006 23.9621 17.2534C24.7999 16.7935 25.7328 16.5635 26.761 16.5635C27.7638 16.5635 28.6715 16.7807 29.4839 17.215C30.2963 17.6495 30.9309 18.2755 31.388 19.0932C31.8576 19.8981 32.0925 20.8371 32.0925 21.9103ZM26.78 18.8249C26.1073 18.8249 25.5424 19.0165 25.0854 19.3998C24.6285 19.7831 24.3493 20.3069 24.2477 20.9713H29.2935C29.1919 20.3197 28.9126 19.8022 28.4557 19.419C27.9986 19.0229 27.4401 18.8249 26.78 18.8249Z" fill="#FFD22E"/>
<path d="M40.1255 16.5633C41.0776 16.5633 41.9407 16.7869 42.715 17.2341C43.502 17.6685 44.1177 18.2881 44.5621 19.093C45.0062 19.8851 45.2284 20.8114 45.2284 21.8719C45.2284 22.9323 45.0062 23.8649 44.5621 24.6698C44.1177 25.462 43.502 26.0816 42.715 26.5288C41.9407 26.9632 41.0776 27.1804 40.1255 27.1804C38.7164 27.1804 37.6438 26.7332 36.9077 25.8389V27.027H34.0706V12.8071H37.0409V17.809C37.7899 16.9786 38.818 16.5633 40.1255 16.5633ZM39.6114 24.7273C40.3731 24.7273 40.9951 24.4718 41.4773 23.9607C41.9725 23.4369 42.22 22.7406 42.22 21.8719C42.22 21.0031 41.9725 20.3132 41.4773 19.8021C40.9951 19.2783 40.3731 19.0164 39.6114 19.0164C38.8499 19.0164 38.2214 19.2783 37.7264 19.8021C37.2441 20.3132 37.0028 21.0031 37.0028 21.8719C37.0028 22.7406 37.2441 23.4369 37.7264 23.9607C38.2214 24.4718 38.8499 24.7273 39.6114 24.7273Z" fill="#FFD22E"/>
<path d="M59.6495 13.6118V27.0268H56.5647V21.5267H50.5098V27.0268H47.4253V13.6118H50.5098V18.9012H56.5647V13.6118H59.6495Z" fill="#FFD22E"/>
<path d="M72.6253 21.9103C72.6253 21.9486 72.6062 22.2169 72.5683 22.7152H64.8186C64.9583 23.354 65.2883 23.8587 65.8088 24.2292C66.3292 24.5997 66.9765 24.785 67.7508 24.785C68.284 24.785 68.7537 24.7083 69.1599 24.555C69.5788 24.3889 69.966 24.1334 70.3215 23.7884L71.9017 25.5132C70.937 26.6247 69.5281 27.1805 67.6748 27.1805C66.5196 27.1805 65.4977 26.9569 64.6093 26.5098C63.7206 26.0498 63.0352 25.4174 62.5527 24.6125C62.0705 23.8076 61.8293 22.8941 61.8293 21.872C61.8293 20.8627 62.0642 19.9556 62.5339 19.1507C63.0161 18.333 63.6699 17.7006 64.4949 17.2534C65.3327 16.7935 66.2657 16.5635 67.2939 16.5635C68.2967 16.5635 69.2043 16.7807 70.0167 17.215C70.8291 17.6495 71.4638 18.2755 71.9207 19.0932C72.3904 19.8981 72.6253 20.8371 72.6253 21.9103ZM67.313 18.8249C66.6403 18.8249 66.0753 19.0165 65.6184 19.3998C65.1613 19.7831 64.8821 20.3069 64.7807 20.9713H69.8263C69.7248 20.3197 69.4456 19.8022 68.9885 19.419C68.5316 19.0229 67.9731 18.8249 67.313 18.8249Z" fill="#FFD22E"/>
<path d="M77.4427 18.0775C77.7982 17.5792 78.2741 17.2023 78.8707 16.9468C79.4801 16.6912 80.1782 16.5635 80.9652 16.5635V19.3231C80.6353 19.2976 80.413 19.2848 80.2988 19.2848C79.4483 19.2848 78.7819 19.5276 78.2997 20.013C77.8172 20.4858 77.5761 21.2012 77.5761 22.1594V27.0272H74.6057V16.7168H77.4427V18.0775Z" fill="#FFD22E"/>
<path d="M87.5103 27.1805C86.4312 27.1805 85.4602 26.9569 84.5971 26.5098C83.7466 26.0498 83.0802 25.4174 82.5977 24.6125C82.1155 23.8076 81.8741 22.8941 81.8741 21.872C81.8741 20.8499 82.1155 19.9364 82.5977 19.1315C83.0802 18.3266 83.7466 17.7006 84.5971 17.2534C85.4602 16.7935 86.4312 16.5635 87.5103 16.5635C88.5892 16.5635 89.5539 16.7935 90.4044 17.2534C91.2549 17.7006 91.9213 18.3266 92.4038 19.1315C92.886 19.9364 93.1272 20.8499 93.1272 21.872C93.1272 22.8941 92.886 23.8076 92.4038 24.6125C91.9213 25.4174 91.2549 26.0498 90.4044 26.5098C89.5539 26.9569 88.5892 27.1805 87.5103 27.1805ZM87.5103 24.7275C88.2718 24.7275 88.894 24.472 89.3762 23.9609C89.8712 23.4371 90.1188 22.7408 90.1188 21.872C90.1188 21.0032 89.8712 20.3133 89.3762 19.8022C88.894 19.2784 88.2718 19.0165 87.5103 19.0165C86.7486 19.0165 86.1203 19.2784 85.6253 19.8022C85.1302 20.3133 84.8826 21.0032 84.8826 21.872C84.8826 22.7408 85.1302 23.4371 85.6253 23.9609C86.1203 24.472 86.7486 24.7275 87.5103 24.7275Z" fill="#FFD22E"/>
<path d="M60.1636 37.7931C59.5904 37.7931 59.0355 37.7054 58.4988 37.5302C57.9694 37.3478 57.5522 37.1141 57.2476 36.8294L57.6501 35.9752C57.9403 36.238 58.3102 36.4534 58.7599 36.6213C59.217 36.782 59.6848 36.8623 60.1636 36.8623C60.7945 36.8623 61.2661 36.7563 61.578 36.5446C61.8898 36.3257 62.0459 36.0373 62.0459 35.6795C62.0459 35.4168 61.9588 35.2049 61.7848 35.0445C61.6178 34.8765 61.4076 34.7488 61.1537 34.6612C60.907 34.5735 60.5553 34.475 60.0982 34.3655C59.5252 34.2267 59.0611 34.088 58.7056 33.9492C58.3573 33.8106 58.0563 33.5989 57.8024 33.3142C57.5558 33.0222 57.4326 32.6316 57.4326 32.1423C57.4326 31.7335 57.5377 31.3648 57.7481 31.0363C57.9658 30.7078 58.2921 30.4449 58.7273 30.2478C59.1625 30.0507 59.7029 29.9521 60.3485 29.9521C60.7982 29.9521 61.2408 30.0106 61.6759 30.1274C62.1111 30.2442 62.4847 30.4121 62.7966 30.6311L62.4375 31.5072C62.1184 31.3028 61.7775 31.1495 61.4148 31.0473C61.0521 30.9378 60.6968 30.883 60.3485 30.883C59.732 30.883 59.2677 30.9962 58.9559 31.2225C58.6513 31.4487 58.4988 31.7408 58.4988 32.0985C58.4988 32.3614 58.5859 32.5768 58.7599 32.7447C58.9341 32.9052 59.148 33.0331 59.4019 33.128C59.663 33.2156 60.0149 33.3105 60.4573 33.4127C61.0303 33.5514 61.4909 33.6902 61.8391 33.8288C62.1874 33.9674 62.4847 34.1793 62.7314 34.4641C62.9851 34.7488 63.112 35.1321 63.112 35.6139C63.112 36.0154 63.0034 36.3841 62.7857 36.7199C62.568 37.0483 62.2381 37.3112 61.7956 37.5083C61.353 37.6981 60.809 37.7931 60.1636 37.7931Z" fill="white"/>
<path d="M67.0621 37.7715C66.4744 37.7715 65.9487 37.6438 65.4844 37.3882C65.0275 37.1326 64.6684 36.7823 64.4072 36.3369C64.1461 35.8842 64.0155 35.3732 64.0155 34.8038C64.0155 34.2343 64.1461 33.7269 64.4072 33.2815C64.6684 32.829 65.0275 32.4785 65.4844 32.2302C65.9487 31.9748 66.4744 31.8469 67.0621 31.8469C67.5844 31.8469 68.0486 31.953 68.4548 32.1646C68.8682 32.3763 69.1873 32.6829 69.4122 33.0844L68.6179 33.5992C68.4366 33.3218 68.2117 33.1138 67.9433 32.9749C67.6749 32.8363 67.3776 32.7669 67.0512 32.7669C66.674 32.7669 66.333 32.8509 66.0284 33.0188C65.731 33.1866 65.4953 33.4276 65.3212 33.7415C65.1544 34.0481 65.0709 34.4023 65.0709 34.8038C65.0709 35.2125 65.1544 35.574 65.3212 35.8879C65.4953 36.1946 65.731 36.4318 66.0284 36.5998C66.333 36.7678 66.674 36.8515 67.0512 36.8515C67.3776 36.8515 67.6749 36.7823 67.9433 36.6435C68.2117 36.5049 68.4366 36.2968 68.6179 36.0194L69.4122 36.5231C69.1873 36.9246 68.8682 37.2348 68.4548 37.454C68.0486 37.6657 67.5844 37.7715 67.0621 37.7715Z" fill="white"/>
<path d="M73.77 31.8461C74.5025 31.8461 75.083 32.0616 75.5109 32.4923C75.9461 32.9158 76.1638 33.54 76.1638 34.365V37.7049H75.1192V34.4854C75.1192 33.9232 74.985 33.4999 74.7166 33.2152C74.4482 32.9304 74.0637 32.788 73.5632 32.788C72.9974 32.788 72.5514 32.9559 72.2251 33.2917C71.8985 33.6203 71.7354 34.0949 71.7354 34.7153V37.7049H70.6908V29.5793H71.7354V32.7224C71.9531 32.4449 72.2359 32.2294 72.584 32.0762C72.9395 31.9228 73.3348 31.8461 73.77 31.8461Z" fill="white"/>
<path d="M80.5987 37.7715C80.0257 37.7715 79.5106 37.6438 79.0537 37.3882C78.5966 37.1326 78.2377 36.7823 77.9766 36.3369C77.7227 35.8842 77.5957 35.3732 77.5957 34.8038C77.5957 34.2343 77.7227 33.7269 77.9766 33.2815C78.2377 32.829 78.5966 32.4785 79.0537 32.2302C79.5106 31.9748 80.0257 31.8469 80.5987 31.8469C81.1717 31.8469 81.6831 31.9748 82.1327 32.2302C82.5898 32.4785 82.9451 32.829 83.199 33.2815C83.4602 33.7269 83.5908 34.2343 83.5908 34.8038C83.5908 35.3732 83.4602 35.8842 83.199 36.3369C82.9451 36.7823 82.5898 37.1326 82.1327 37.3882C81.6831 37.6438 81.1717 37.7715 80.5987 37.7715ZM80.5987 36.8515C80.9686 36.8515 81.2986 36.7678 81.5887 36.5998C81.8863 36.4245 82.1183 36.1835 82.285 35.8769C82.452 35.563 82.5353 35.2053 82.5353 34.8038C82.5353 34.4023 82.452 34.0481 82.285 33.7415C82.1183 33.4276 81.8863 33.1866 81.5887 33.0188C81.2986 32.8509 80.9686 32.7669 80.5987 32.7669C80.2287 32.7669 79.8951 32.8509 79.5977 33.0188C79.3076 33.1866 79.0755 33.4276 78.9014 33.7415C78.7344 34.0481 78.6511 34.4023 78.6511 34.8038C78.6511 35.2053 78.7344 35.563 78.9014 35.8769C79.0755 36.1835 79.3076 36.4245 79.5977 36.5998C79.8951 36.7678 80.2287 36.8515 80.5987 36.8515Z" fill="white"/>
<path d="M87.5027 37.7715C86.9295 37.7715 86.4146 37.6438 85.9575 37.3882C85.5006 37.1326 85.1415 36.7823 84.8804 36.3369C84.6265 35.8842 84.4995 35.3732 84.4995 34.8038C84.4995 34.2343 84.6265 33.7269 84.8804 33.2815C85.1415 32.829 85.5006 32.4785 85.9575 32.2302C86.4146 31.9748 86.9295 31.8469 87.5027 31.8469C88.0757 31.8469 88.5871 31.9748 89.0367 32.2302C89.4936 32.4785 89.8491 32.829 90.103 33.2815C90.3642 33.7269 90.4948 34.2343 90.4948 34.8038C90.4948 35.3732 90.3642 35.8842 90.103 36.3369C89.8491 36.7823 89.4936 37.1326 89.0367 37.3882C88.5871 37.6438 88.0757 37.7715 87.5027 37.7715ZM87.5027 36.8515C87.8725 36.8515 88.2026 36.7678 88.4927 36.5998C88.7901 36.4245 89.0223 36.1835 89.189 35.8769C89.3558 35.563 89.4393 35.2053 89.4393 34.8038C89.4393 34.4023 89.3558 34.0481 89.189 33.7415C89.0223 33.4276 88.7901 33.1866 88.4927 33.0188C88.2026 32.8509 87.8725 32.7669 87.5027 32.7669C87.1327 32.7669 86.7989 32.8509 86.5016 33.0188C86.2114 33.1866 85.9793 33.4276 85.8052 33.7415C85.6384 34.0481 85.555 34.4023 85.555 34.8038C85.555 35.2053 85.6384 35.563 85.8052 35.8769C85.9793 36.1835 86.2114 36.4245 86.5016 36.5998C86.7989 36.7678 87.1327 36.8515 87.5027 36.8515Z" fill="white"/>
<path d="M91.9418 29.5793H92.9863V37.7049H91.9418V29.5793Z" fill="white"/>
<path d="M7.86386 0.151432H5.24878V6.19288H6.64694V4.52717H7.86386C9.47779 4.52717 10.4876 3.69 10.4876 2.34362C10.4876 0.988605 9.47779 0.151432 7.86386 0.151432ZM7.78619 3.38792H6.64694V1.29068H7.78619C8.64062 1.29068 9.07215 1.67906 9.07215 2.34362C9.07215 2.99954 8.64062 3.38792 7.78619 3.38792Z" fill="white"/>
<path d="M15.7325 6.19288H17.1997L14.4983 0.151432H13.1174L10.4247 6.19288H11.8574L12.3925 4.89829H15.1974L15.7325 6.19288ZM12.8412 3.83672L13.7992 1.5237L14.7573 3.83672H12.8412Z" fill="white"/>
<path d="M21.4359 3.0427C21.971 2.80967 22.3076 2.34362 22.3076 1.75673C22.3076 0.66064 21.0993 0.0219727 19.7011 0.0219727C19.0107 0.0219727 18.2857 0.177324 17.6298 0.513919L18.0527 1.60138C18.5705 1.30794 19.166 1.16985 19.6752 1.16985C20.3571 1.16985 20.8922 1.42877 20.8922 1.92071C20.8922 2.31772 20.5642 2.56801 19.9946 2.56801H18.6223V3.62095H20.0981C20.7282 3.62095 21.1424 3.84535 21.1424 4.30277C21.1424 4.86376 20.4951 5.1572 19.7011 5.1572C19.1142 5.1572 18.4411 5.00185 17.8887 4.66526L17.4572 5.66641C18.208 6.09794 19.0625 6.29645 19.8651 6.29645C21.3151 6.29645 22.5579 5.64052 22.5579 4.50128C22.5579 3.81946 22.135 3.28436 21.4359 3.0427Z" fill="white"/>
<path d="M26.2798 0.151432H23.6647V6.19288H25.0629V4.52717H26.2798C27.8938 4.52717 28.9035 3.69 28.9035 2.34362C28.9035 0.988605 27.8938 0.151432 26.2798 0.151432ZM26.2022 3.38792H25.0629V1.29068H26.2022C27.0566 1.29068 27.4881 1.67906 27.4881 2.34362C27.4881 2.99954 27.0566 3.38792 26.2022 3.38792Z" fill="white"/>
<path d="M34.1485 6.19288H35.6157L32.9143 0.151432H31.5334L28.8406 6.19288H30.2733L30.8084 4.89829H33.6134L34.1485 6.19288ZM31.2572 3.83672L32.2152 1.5237L33.1732 3.83672H31.2572Z" fill="white"/>
<path d="M36.4169 6.19288H39.2822C40.8357 6.19288 41.7247 5.4938 41.7247 4.28551C41.7247 3.129 40.9393 2.5076 39.4807 2.5076H37.8064V1.26478H41.2932V0.151432H36.4169V6.19288ZM37.8064 5.1572V3.53464H39.2046C39.9382 3.53464 40.3093 3.79356 40.3093 4.32866C40.3093 4.87239 39.9209 5.1572 39.2046 5.1572H37.8064Z" fill="white"/>
<path d="M45.6713 6.29645C47.5701 6.29645 48.9769 4.97596 48.9769 3.17216C48.9769 1.36835 47.5701 0.0478648 45.6713 0.0478648C43.764 0.0478648 42.3658 1.37698 42.3658 3.17216C42.3658 4.96733 43.764 6.29645 45.6713 6.29645ZM45.6713 5.10542C44.5925 5.10542 43.7812 4.32003 43.7812 3.17216C43.7812 2.02428 44.5925 1.23889 45.6713 1.23889C46.7502 1.23889 47.5614 2.02428 47.5614 3.17216C47.5614 4.32003 46.7502 5.10542 45.6713 5.10542Z" fill="white"/>
<path d="M54.5871 0.151432H49.3483V1.29068H51.2729V6.19288H52.6538V1.29068H54.5871V0.151432Z" fill="white"/>
<path d="M59.7876 6.19288H61.2548L58.5534 0.151432H57.1725L54.4797 6.19288H55.9124L56.4475 4.89829H59.2525L59.7876 6.19288ZM56.8963 3.83672L57.8543 1.5237L58.8123 3.83672H56.8963Z" fill="white"/>
<path d="M66.1986 0.151432V2.53349H63.4541V0.151432H62.0559V6.19288H63.4541V3.71589H66.1986V6.19288H67.5968V0.151432H66.1986Z" fill="white"/>
<path d="M71.9931 6.29645C73.8918 6.29645 75.2986 4.97596 75.2986 3.17216C75.2986 1.36835 73.8918 0.0478648 71.9931 0.0478648C70.0857 0.0478648 68.6876 1.37698 68.6876 3.17216C68.6876 4.96733 70.0857 6.29645 71.9931 6.29645ZM71.9931 5.10542C70.9143 5.10542 70.103 4.32003 70.103 3.17216C70.103 2.02428 70.9143 1.23889 71.9931 1.23889C73.0719 1.23889 73.8832 2.02428 73.8832 3.17216C73.8832 4.32003 73.0719 5.10542 71.9931 5.10542Z" fill="white"/>
<path d="M83.0058 3.0427C83.5409 2.78378 83.8602 2.32635 83.8602 1.71358C83.8602 0.712424 83.0317 0.151432 81.6335 0.151432H78.8199V6.19288H81.7975C83.3251 6.19288 84.1451 5.54558 84.1451 4.49264C84.1451 3.75904 83.7394 3.25846 83.0058 3.0427ZM80.2095 1.18711H81.5127C82.1168 1.18711 82.4362 1.44603 82.4362 1.92071C82.4362 2.40403 82.1168 2.65432 81.5127 2.65432H80.2095V1.18711ZM81.7457 5.1572H80.2095V3.62958H81.7457C82.393 3.62958 82.7296 3.87124 82.7296 4.38045C82.7296 4.90692 82.393 5.1572 81.7457 5.1572Z" fill="white"/>
</svg>
