<svg width="16" height="19" viewBox="0 0 16 19" fill="none" xmlns="http://www.w3.org/2000/svg">
<path d="M13.239 2.42924C11.9999 1.23981 10.2853 0.584717 8.41086 0.584717C5.54758 0.584717 3.78654 1.75842 2.81342 2.74297C1.61411 3.95633 0.926392 5.56742 0.926392 7.16324C0.926392 9.16689 1.76448 10.7048 3.16796 11.2769C3.26218 11.3155 3.35699 11.335 3.44993 11.335C3.74601 11.335 3.98061 11.1412 4.06189 10.8305C4.10927 10.6522 4.21905 10.2124 4.26677 10.0214C4.36895 9.64434 4.28639 9.46297 4.06358 9.20039C3.65765 8.7201 3.46863 8.15215 3.46863 7.41299C3.46863 5.21746 5.10346 2.88405 8.13347 2.88405C10.5377 2.88405 12.0311 4.25049 12.0311 6.45009C12.0311 7.83813 11.7321 9.12358 11.1891 10.0698C10.8117 10.7273 10.1482 11.511 9.12947 11.511C8.68895 11.511 8.29324 11.3301 8.04355 11.0146C7.80767 10.7164 7.72993 10.3311 7.82479 9.92962C7.93196 9.47598 8.07809 9.00277 8.21951 8.5453C8.47745 7.70977 8.72128 6.92062 8.72128 6.29102C8.72128 5.21409 8.05922 4.49049 7.07397 4.49049C5.82183 4.49049 4.84088 5.76225 4.84088 7.38576C4.84088 8.18199 5.05249 8.77752 5.14828 9.0062C4.99054 9.67453 4.05307 13.6479 3.87524 14.3971C3.77243 14.8345 3.15304 18.2891 4.17823 18.5646C5.33011 18.8741 6.35971 15.5095 6.4645 15.1293C6.54944 14.8201 6.84662 13.651 7.02874 12.9322C7.58479 13.4679 8.48012 13.8299 9.3513 13.8299C10.9936 13.8299 12.4706 13.0909 13.5102 11.7491C14.5184 10.4476 15.0737 8.6336 15.0737 6.64149C15.0737 5.08411 14.4049 3.54878 13.239 2.42924Z" fill="white"/>
</svg>
