<svg width="18" height="15" viewBox="0 0 18 15" fill="none" xmlns="http://www.w3.org/2000/svg">
<path d="M18.0001 2.00408C17.3376 2.29764 16.6267 2.49673 15.8799 2.58561C16.6425 2.12893 17.2262 1.40458 17.5029 0.544111C16.7876 0.967023 15.9979 1.27411 15.1566 1.44058C14.4829 0.721846 13.5245 0.27417 12.4616 0.27417C10.4224 0.27417 8.76892 1.92761 8.76892 3.96573C8.76892 4.25479 8.80153 4.53711 8.86454 4.80708C5.79612 4.65296 3.07527 3.18287 1.25424 0.949023C0.935916 1.49343 0.754828 2.12779 0.754828 2.80493C0.754828 4.08608 1.40721 5.21649 2.39703 5.87784C1.79189 5.85761 1.22274 5.69114 0.724475 5.41443V5.46055C0.724475 7.24896 1.99774 8.74155 3.68603 9.08125C3.37671 9.16449 3.05053 9.21061 2.71309 9.21061C2.47465 9.21061 2.24406 9.18699 2.01798 9.14199C2.48812 10.6098 3.85139 11.6773 5.46659 11.7065C4.20345 12.6963 2.61074 13.2846 0.880828 13.2846C0.582769 13.2846 0.289181 13.2666 0.00012207 13.234C1.63445 14.2834 3.57471 14.8953 5.66006 14.8953C12.4527 14.8953 16.1656 9.26911 16.1656 4.38979L16.1532 3.91176C16.8787 3.39432 17.5063 2.7442 18.0001 2.00408Z" fill="white"/>
</svg>
