<svg width="19" height="20" viewBox="0 0 19 20" fill="none" xmlns="http://www.w3.org/2000/svg">
<g clip-path="url(#clip0)">
<path d="M18.6742 16.5518H1.23921C1.06727 16.5518 0.927856 16.3973 0.927856 16.2069V3.79315C0.927856 3.60272 1.06727 3.4483 1.23921 3.4483H18.6742C18.8461 3.4483 18.9856 3.60272 18.9856 3.79315V16.2069C18.9855 16.3974 18.8461 16.5518 18.6742 16.5518Z" fill="#F5F5F5"/>
<path d="M18.9855 4.45631H0.927856V3.79315C0.927856 3.60272 1.06727 3.4483 1.23921 3.4483H18.6742C18.8461 3.4483 18.9856 3.60272 18.9856 3.79315L18.9855 4.45631Z" fill="#FF4B55"/>
<path d="M18.9855 7.4801H0.927856V8.48807H18.9855V7.4801Z" fill="#FF4B55"/>
<path d="M18.9855 5.46411H0.927856V6.47208H18.9855V5.46411Z" fill="#FF4B55"/>
<path d="M18.9855 10.504H1.23921C1.06727 10.504 0.927856 10.3496 0.927856 10.1592V9.49603H18.9855V10.504Z" fill="#FF4B55"/>
<path d="M18.9855 13.5282H0.927856V14.5362H18.9855V13.5282Z" fill="#FF4B55"/>
<path d="M18.6742 16.5517H1.23921C1.06727 16.5517 0.927856 16.3973 0.927856 16.2069V15.5438H18.9855V16.2069C18.9855 16.3974 18.8461 16.5517 18.6742 16.5517Z" fill="#FF4B55"/>
<path d="M18.9855 11.5121H0.927856V12.5201H18.9855V11.5121Z" fill="#FF4B55"/>
<path d="M9.02266 3.4483H1.23921C1.06727 3.4483 0.927856 3.60268 0.927856 3.79311V10.1591C0.927856 10.3495 1.06727 10.504 1.23921 10.504H9.0227C9.19463 10.504 9.33405 10.3495 9.33405 10.1591V3.79311C9.33401 3.60268 9.1946 3.4483 9.02266 3.4483Z" fill="#41479B"/>
<path d="M1.80215 4.23976L1.87106 4.46867L2.08892 4.4705C2.11713 4.47078 2.12881 4.51062 2.10613 4.52917L1.93088 4.67253L1.99662 4.90257C2.00515 4.93234 1.97451 4.95702 1.95155 4.93882L1.77432 4.79855L1.59709 4.93886C1.57413 4.95702 1.54356 4.93238 1.55202 4.90261L1.61776 4.67257L1.44251 4.52921C1.41983 4.51062 1.43151 4.47081 1.45972 4.47054L1.67758 4.46871L1.74649 4.2398C1.75538 4.21011 1.79319 4.21011 1.80215 4.23976Z" fill="#F5F5F5"/>
<path d="M1.80215 5.43718L1.87106 5.66609L2.08892 5.66792C2.11713 5.66819 2.12881 5.70804 2.10613 5.72659L1.93088 5.86995L1.99662 6.09999C2.00515 6.12976 1.97451 6.15444 1.95155 6.13624L1.77432 5.99597L1.59709 6.13628C1.57413 6.15444 1.54356 6.12979 1.55202 6.10003L1.61776 5.86999L1.44251 5.72663C1.41983 5.70804 1.43151 5.66823 1.45972 5.66796L1.67758 5.66612L1.74649 5.43722C1.75538 5.40757 1.79319 5.40757 1.80215 5.43718Z" fill="#F5F5F5"/>
<path d="M1.80215 6.63463L1.87106 6.86354L2.08892 6.86537C2.11713 6.86565 2.12881 6.90549 2.10613 6.92405L1.93088 7.06741L1.99662 7.29745C2.00515 7.32721 1.97451 7.3519 1.95155 7.3337L1.77432 7.19342L1.59709 7.33374C1.57413 7.3519 1.54356 7.32725 1.55202 7.29749L1.61776 7.06744L1.44251 6.92408C1.41983 6.90549 1.43151 6.86569 1.45972 6.86541L1.67758 6.86358L1.74649 6.63467C1.75538 6.60502 1.79319 6.60502 1.80215 6.63463Z" fill="#F5F5F5"/>
<path d="M1.80215 7.83205L1.87106 8.06095L2.08892 8.06279C2.11713 8.06306 2.12881 8.10291 2.10613 8.12146L1.93088 8.26482L1.99662 8.49486C2.00515 8.52462 1.97451 8.54931 1.95155 8.53111L1.77432 8.39084L1.59709 8.53115C1.57413 8.54931 1.54356 8.52466 1.55202 8.4949L1.61776 8.26486L1.44251 8.1215C1.41983 8.10291 1.43151 8.0631 1.45972 8.06283L1.67758 8.06099L1.74649 7.83208C1.75538 7.8024 1.79319 7.8024 1.80215 7.83205Z" fill="#F5F5F5"/>
<path d="M1.80215 9.02946L1.87106 9.25837L2.08892 9.26021C2.11713 9.26048 2.12881 9.30032 2.10613 9.31888L1.93088 9.46224L1.99662 9.69228C2.00515 9.72205 1.97451 9.74673 1.95155 9.72853L1.77432 9.58826L1.59709 9.72857C1.57413 9.74673 1.54356 9.72209 1.55202 9.69232L1.61776 9.46228L1.44251 9.31892C1.41983 9.30032 1.43151 9.26052 1.45972 9.26025L1.67758 9.25841L1.74649 9.0295C1.75538 8.99978 1.79319 8.99978 1.80215 9.02946Z" fill="#F5F5F5"/>
<path d="M2.64126 4.82683L2.71017 5.05574L2.92803 5.05757C2.95624 5.05785 2.96792 5.09769 2.94524 5.11625L2.76999 5.25961L2.83573 5.48964C2.84427 5.51941 2.81362 5.5441 2.79066 5.52589L2.61343 5.38558L2.43621 5.52589C2.41325 5.54406 2.38267 5.51941 2.39113 5.48964L2.45687 5.25961L2.28162 5.11625C2.25894 5.09765 2.27062 5.05785 2.29883 5.05757L2.51669 5.05574L2.5856 4.82683C2.59446 4.79722 2.63234 4.79722 2.64126 4.82683Z" fill="#F5F5F5"/>
<path d="M2.64126 6.02431L2.71017 6.25321L2.92803 6.25505C2.95624 6.25532 2.96792 6.29517 2.94524 6.31372L2.76999 6.45708L2.83573 6.68711C2.84427 6.71688 2.81362 6.74157 2.79066 6.72336L2.61343 6.58305L2.43621 6.72336C2.41325 6.74153 2.38267 6.71692 2.39113 6.68711L2.45687 6.45708L2.28162 6.31372C2.25894 6.29513 2.27062 6.25532 2.29883 6.25505L2.51669 6.25321L2.5856 6.02431C2.59446 5.99466 2.63234 5.99466 2.64126 6.02431Z" fill="#F5F5F5"/>
<path d="M2.64126 7.2217L2.71017 7.4506L2.92803 7.45244C2.95624 7.45271 2.96792 7.49256 2.94524 7.51111L2.76999 7.65447L2.83573 7.88451C2.84427 7.91428 2.81362 7.93896 2.79066 7.92076L2.61343 7.78045L2.43621 7.92076C2.41325 7.93892 2.38267 7.91428 2.39113 7.88451L2.45687 7.65447L2.28162 7.51111C2.25894 7.49252 2.27062 7.45271 2.29883 7.45244L2.51669 7.4506L2.5856 7.2217C2.59446 7.19205 2.63234 7.19205 2.64126 7.2217Z" fill="#F5F5F5"/>
<path d="M2.64126 8.41912L2.71017 8.64802L2.92803 8.64986C2.95624 8.65013 2.96792 8.68998 2.94524 8.70853L2.76999 8.85189L2.83573 9.08193C2.84427 9.1117 2.81362 9.13638 2.79066 9.11818L2.61343 8.97787L2.43621 9.11818C2.41325 9.13634 2.38267 9.1117 2.39113 9.08193L2.45687 8.85189L2.28162 8.70853C2.25894 8.68994 2.27062 8.65013 2.29883 8.64986L2.51669 8.64802L2.5856 8.41912C2.59446 8.38951 2.63234 8.38951 2.64126 8.41912Z" fill="#F5F5F5"/>
<path d="M3.48049 4.23977L3.54941 4.46867L3.76727 4.47051C3.79548 4.47078 3.80716 4.51062 3.78448 4.52918L3.60923 4.67254L3.67497 4.90257C3.6835 4.93234 3.65285 4.95702 3.62989 4.93882L3.45267 4.79851L3.27544 4.93882C3.25248 4.95699 3.2219 4.93234 3.23037 4.90257L3.29611 4.67254L3.12086 4.52918C3.09818 4.51058 3.10985 4.47078 3.13807 4.47051L3.35592 4.46867L3.42484 4.23977C3.43373 4.21012 3.47157 4.21012 3.48049 4.23977Z" fill="#F5F5F5"/>
<path d="M3.48049 5.43718L3.54941 5.66609L3.76727 5.66793C3.79548 5.6682 3.80716 5.70804 3.78448 5.7266L3.60923 5.86996L3.67497 6.1C3.6835 6.12976 3.65285 6.15445 3.62989 6.13625L3.45267 5.99593L3.27544 6.13625C3.25248 6.15441 3.2219 6.12976 3.23037 6.1L3.29611 5.86996L3.12086 5.7266C3.09818 5.708 3.10985 5.6682 3.13807 5.66793L3.35592 5.66609L3.42484 5.43718C3.43373 5.40758 3.47157 5.40758 3.48049 5.43718Z" fill="#F5F5F5"/>
<path d="M3.48049 6.63463L3.54941 6.86354L3.76727 6.86538C3.79548 6.86565 3.80716 6.9055 3.78448 6.92405L3.60923 7.06741L3.67497 7.29746C3.6835 7.32722 3.65285 7.35191 3.62989 7.33371L3.45267 7.19339L3.27544 7.33371C3.25248 7.35187 3.2219 7.32722 3.23037 7.29746L3.29611 7.06741L3.12086 6.92405C3.09818 6.90546 3.10985 6.86565 3.13807 6.86538L3.35592 6.86354L3.42484 6.63463C3.43373 6.60502 3.47157 6.60502 3.48049 6.63463Z" fill="#F5F5F5"/>
<path d="M3.48049 7.83205L3.54941 8.06096L3.76727 8.06279C3.79548 8.06307 3.80716 8.10291 3.78448 8.12146L3.60923 8.26482L3.67497 8.49486C3.6835 8.52463 3.65285 8.54932 3.62989 8.53111L3.45267 8.3908L3.27544 8.53111C3.25248 8.54928 3.2219 8.52463 3.23037 8.49486L3.29611 8.26482L3.12086 8.12146C3.09818 8.10287 3.10985 8.06307 3.13807 8.06279L3.35592 8.06096L3.42484 7.83205C3.43373 7.8024 3.47157 7.8024 3.48049 7.83205Z" fill="#F5F5F5"/>
<path d="M3.48049 9.02947L3.54941 9.25838L3.76727 9.26021C3.79548 9.26048 3.80716 9.30033 3.78448 9.31888L3.60923 9.46224L3.67497 9.69228C3.6835 9.72205 3.65285 9.74674 3.62989 9.72853L3.45267 9.58822L3.27544 9.72853C3.25248 9.7467 3.2219 9.72205 3.23037 9.69228L3.29611 9.46224L3.12086 9.31888C3.09818 9.30029 3.10985 9.26048 3.13807 9.26021L3.35592 9.25838L3.42484 9.02947C3.43373 8.99978 3.47157 8.99978 3.48049 9.02947Z" fill="#F5F5F5"/>
<path d="M4.3196 4.82683L4.38852 5.05574L4.60637 5.05757C4.63459 5.05785 4.64626 5.09769 4.62359 5.11625L4.44833 5.25961L4.51408 5.48964C4.52261 5.51941 4.49196 5.5441 4.469 5.52589L4.29178 5.38558L4.11455 5.52589C4.09159 5.54406 4.06101 5.51941 4.06948 5.48964L4.13522 5.25961L3.95997 5.11625C3.93729 5.09765 3.94896 5.05785 3.97718 5.05757L4.19503 5.05574L4.26395 4.82683C4.2728 4.79722 4.31068 4.79722 4.3196 4.82683Z" fill="#F5F5F5"/>
<path d="M4.3196 6.02431L4.38852 6.25321L4.60637 6.25505C4.63459 6.25532 4.64626 6.29517 4.62359 6.31372L4.44833 6.45708L4.51408 6.68711C4.52261 6.71688 4.49196 6.74157 4.469 6.72336L4.29178 6.58305L4.11455 6.72336C4.09159 6.74153 4.06101 6.71692 4.06948 6.68711L4.13522 6.45708L3.95997 6.31372C3.93729 6.29513 3.94896 6.25532 3.97718 6.25505L4.19503 6.25321L4.26395 6.02431C4.2728 5.99466 4.31068 5.99466 4.3196 6.02431Z" fill="#F5F5F5"/>
<path d="M4.3196 7.2217L4.38852 7.4506L4.60637 7.45244C4.63459 7.45271 4.64626 7.49256 4.62359 7.51111L4.44833 7.65447L4.51408 7.88451C4.52261 7.91428 4.49196 7.93896 4.469 7.92076L4.29178 7.78045L4.11455 7.92076C4.09159 7.93892 4.06101 7.91428 4.06948 7.88451L4.13522 7.65447L3.95997 7.51111C3.93729 7.49252 3.94896 7.45271 3.97718 7.45244L4.19503 7.4506L4.26395 7.2217C4.2728 7.19205 4.31068 7.19205 4.3196 7.2217Z" fill="#F5F5F5"/>
<path d="M4.3196 8.41912L4.38852 8.64802L4.60637 8.64986C4.63459 8.65013 4.64626 8.68998 4.62359 8.70853L4.44833 8.85189L4.51408 9.08193C4.52261 9.1117 4.49196 9.13638 4.469 9.11818L4.29178 8.97787L4.11455 9.11818C4.09159 9.13634 4.06101 9.1117 4.06948 9.08193L4.13522 8.85189L3.95997 8.70853C3.93729 8.68994 3.94896 8.65013 3.97718 8.64986L4.19503 8.64802L4.26395 8.41912C4.2728 8.38951 4.31068 8.38951 4.3196 8.41912Z" fill="#F5F5F5"/>
<path d="M5.15875 4.23977L5.22767 4.46867L5.44552 4.47051C5.47374 4.47078 5.48541 4.51062 5.46273 4.52918L5.28748 4.67254L5.35322 4.90257C5.36176 4.93234 5.33111 4.95702 5.30815 4.93882L5.13089 4.79851L4.95366 4.93882C4.9307 4.95699 4.90012 4.93234 4.90859 4.90257L4.97433 4.67254L4.79908 4.52918C4.7764 4.51058 4.78807 4.47078 4.81629 4.47051L5.03415 4.46867L5.10306 4.23977C5.11198 4.21012 5.14983 4.21012 5.15875 4.23977Z" fill="#F5F5F5"/>
<path d="M5.15875 5.43718L5.22767 5.66609L5.44552 5.66793C5.47374 5.6682 5.48541 5.70804 5.46273 5.7266L5.28748 5.86996L5.35322 6.1C5.36176 6.12976 5.33111 6.15445 5.30815 6.13625L5.13089 5.99593L4.95366 6.13625C4.9307 6.15441 4.90012 6.12976 4.90859 6.1L4.97433 5.86996L4.79908 5.7266C4.7764 5.708 4.78807 5.6682 4.81629 5.66793L5.03415 5.66609L5.10306 5.43718C5.11198 5.40758 5.14983 5.40758 5.15875 5.43718Z" fill="#F5F5F5"/>
<path d="M5.15875 6.63463L5.22767 6.86354L5.44552 6.86538C5.47374 6.86565 5.48541 6.9055 5.46273 6.92405L5.28748 7.06741L5.35322 7.29746C5.36176 7.32722 5.33111 7.35191 5.30815 7.33371L5.13089 7.19339L4.95366 7.33371C4.9307 7.35187 4.90012 7.32722 4.90859 7.29746L4.97433 7.06741L4.79908 6.92405C4.7764 6.90546 4.78807 6.86565 4.81629 6.86538L5.03415 6.86354L5.10306 6.63463C5.11198 6.60502 5.14983 6.60502 5.15875 6.63463Z" fill="#F5F5F5"/>
<path d="M5.15875 7.83205L5.22767 8.06096L5.44552 8.06279C5.47374 8.06307 5.48541 8.10291 5.46273 8.12146L5.28748 8.26482L5.35322 8.49486C5.36176 8.52463 5.33111 8.54932 5.30815 8.53111L5.13089 8.3908L4.95366 8.53111C4.9307 8.54928 4.90012 8.52463 4.90859 8.49486L4.97433 8.26482L4.79908 8.12146C4.7764 8.10287 4.78807 8.06307 4.81629 8.06279L5.03415 8.06096L5.10306 7.83205C5.11198 7.8024 5.14983 7.8024 5.15875 7.83205Z" fill="#F5F5F5"/>
<path d="M5.15875 9.02947L5.22767 9.25838L5.44552 9.26021C5.47374 9.26048 5.48541 9.30033 5.46273 9.31888L5.28748 9.46224L5.35322 9.69228C5.36176 9.72205 5.33111 9.74674 5.30815 9.72853L5.13089 9.58822L4.95366 9.72853C4.9307 9.7467 4.90012 9.72205 4.90859 9.69228L4.97433 9.46224L4.79908 9.31888C4.7764 9.30029 4.78807 9.26048 4.81629 9.26021L5.03415 9.25838L5.10306 9.02947C5.11198 8.99978 5.14983 8.99978 5.15875 9.02947Z" fill="#F5F5F5"/>
<path d="M5.99795 4.82683L6.06687 5.05574L6.28472 5.05757C6.31294 5.05785 6.32461 5.09769 6.30194 5.11625L6.12668 5.25961L6.19243 5.48964C6.20096 5.51941 6.17031 5.5441 6.14735 5.52589L5.97012 5.38558L5.7929 5.52589C5.76994 5.54406 5.73936 5.51941 5.74782 5.48964L5.81356 5.25961L5.63831 5.11625C5.61563 5.09765 5.62731 5.05785 5.65552 5.05757L5.87338 5.05574L5.9423 4.82683C5.95122 4.79722 5.98903 4.79722 5.99795 4.82683Z" fill="#F5F5F5"/>
<path d="M5.99795 6.02431L6.06687 6.25321L6.28472 6.25505C6.31294 6.25532 6.32461 6.29517 6.30194 6.31372L6.12668 6.45708L6.19243 6.68711C6.20096 6.71688 6.17031 6.74157 6.14735 6.72336L5.97012 6.58305L5.7929 6.72336C5.76994 6.74153 5.73936 6.71692 5.74782 6.68711L5.81356 6.45708L5.63831 6.31372C5.61563 6.29513 5.62731 6.25532 5.65552 6.25505L5.87338 6.25321L5.9423 6.02431C5.95122 5.99466 5.98903 5.99466 5.99795 6.02431Z" fill="#F5F5F5"/>
<path d="M5.99795 7.2217L6.06687 7.4506L6.28472 7.45244C6.31294 7.45271 6.32461 7.49256 6.30194 7.51111L6.12668 7.65447L6.19243 7.88451C6.20096 7.91428 6.17031 7.93896 6.14735 7.92076L5.97012 7.78045L5.7929 7.92076C5.76994 7.93892 5.73936 7.91428 5.74782 7.88451L5.81356 7.65447L5.63831 7.51111C5.61563 7.49252 5.62731 7.45271 5.65552 7.45244L5.87338 7.4506L5.9423 7.2217C5.95122 7.19205 5.98903 7.19205 5.99795 7.2217Z" fill="#F5F5F5"/>
<path d="M5.99795 8.41912L6.06687 8.64802L6.28472 8.64986C6.31294 8.65013 6.32461 8.68998 6.30194 8.70853L6.12668 8.85189L6.19243 9.08193C6.20096 9.1117 6.17031 9.13638 6.14735 9.11818L5.97012 8.97787L5.7929 9.11818C5.76994 9.13634 5.73936 9.1117 5.74782 9.08193L5.81356 8.85189L5.63831 8.70853C5.61563 8.68994 5.62731 8.65013 5.65552 8.64986L5.87338 8.64802L5.9423 8.41912C5.95122 8.38951 5.98903 8.38951 5.99795 8.41912Z" fill="#F5F5F5"/>
<path d="M6.83718 4.23977L6.9061 4.46867L7.12396 4.47051C7.15217 4.47078 7.16385 4.51062 7.14117 4.52918L6.96592 4.67254L7.03166 4.90257C7.04019 4.93234 7.00955 4.95702 6.98658 4.93882L6.80936 4.79851L6.63213 4.93882C6.60917 4.95699 6.57859 4.93234 6.58706 4.90257L6.6528 4.67254L6.47755 4.52918C6.45487 4.51058 6.46654 4.47078 6.49476 4.47051L6.71261 4.46867L6.78153 4.23977C6.79038 4.21012 6.82826 4.21012 6.83718 4.23977Z" fill="#F5F5F5"/>
<path d="M6.83718 5.43718L6.9061 5.66609L7.12396 5.66793C7.15217 5.6682 7.16385 5.70804 7.14117 5.7266L6.96592 5.86996L7.03166 6.1C7.04019 6.12976 7.00955 6.15445 6.98658 6.13625L6.80936 5.99593L6.63213 6.13625C6.60917 6.15441 6.57859 6.12976 6.58706 6.1L6.6528 5.86996L6.47755 5.7266C6.45487 5.708 6.46654 5.6682 6.49476 5.66793L6.71261 5.66609L6.78153 5.43718C6.79038 5.40758 6.82826 5.40758 6.83718 5.43718Z" fill="#F5F5F5"/>
<path d="M6.83718 6.63463L6.9061 6.86354L7.12396 6.86538C7.15217 6.86565 7.16385 6.9055 7.14117 6.92405L6.96592 7.06741L7.03166 7.29746C7.04019 7.32722 7.00955 7.35191 6.98658 7.33371L6.80936 7.19339L6.63213 7.33371C6.60917 7.35187 6.57859 7.32722 6.58706 7.29746L6.6528 7.06741L6.47755 6.92405C6.45487 6.90546 6.46654 6.86565 6.49476 6.86538L6.71261 6.86354L6.78153 6.63463C6.79038 6.60502 6.82826 6.60502 6.83718 6.63463Z" fill="#F5F5F5"/>
<path d="M6.83718 7.83205L6.9061 8.06096L7.12396 8.06279C7.15217 8.06307 7.16385 8.10291 7.14117 8.12146L6.96592 8.26482L7.03166 8.49486C7.04019 8.52463 7.00955 8.54932 6.98658 8.53111L6.80936 8.3908L6.63213 8.53111C6.60917 8.54928 6.57859 8.52463 6.58706 8.49486L6.6528 8.26482L6.47755 8.12146C6.45487 8.10287 6.46654 8.06307 6.49476 8.06279L6.71261 8.06096L6.78153 7.83205C6.79038 7.8024 6.82826 7.8024 6.83718 7.83205Z" fill="#F5F5F5"/>
<path d="M6.83718 9.02947L6.9061 9.25838L7.12396 9.26021C7.15217 9.26048 7.16385 9.30033 7.14117 9.31888L6.96592 9.46224L7.03166 9.69228C7.04019 9.72205 7.00955 9.74674 6.98658 9.72853L6.80936 9.58822L6.63213 9.72853C6.60917 9.7467 6.57859 9.72205 6.58706 9.69228L6.6528 9.46224L6.47755 9.31888C6.45487 9.30029 6.46654 9.26048 6.49476 9.26021L6.71261 9.25838L6.78153 9.02947C6.79038 8.99978 6.82826 8.99978 6.83718 9.02947Z" fill="#F5F5F5"/>
<path d="M7.67629 4.82683L7.74521 5.05574L7.96306 5.05757C7.99128 5.05785 8.00295 5.09769 7.98027 5.11625L7.80502 5.25961L7.87076 5.48964C7.8793 5.51941 7.84865 5.5441 7.82569 5.52589L7.64846 5.38558L7.47124 5.52589C7.44828 5.54406 7.4177 5.51941 7.42617 5.48964L7.49191 5.25961L7.31666 5.11625C7.29398 5.09765 7.30565 5.05785 7.33387 5.05757L7.55172 5.05574L7.62064 4.82683C7.62953 4.79722 7.6674 4.79722 7.67629 4.82683Z" fill="#F5F5F5"/>
<path d="M7.67629 6.02431L7.74521 6.25321L7.96306 6.25505C7.99128 6.25532 8.00295 6.29517 7.98027 6.31372L7.80502 6.45708L7.87076 6.68711C7.8793 6.71688 7.84865 6.74157 7.82569 6.72336L7.64846 6.58305L7.47124 6.72336C7.44828 6.74153 7.4177 6.71692 7.42617 6.68711L7.49191 6.45708L7.31666 6.31372C7.29398 6.29513 7.30565 6.25532 7.33387 6.25505L7.55172 6.25321L7.62064 6.02431C7.62953 5.99466 7.6674 5.99466 7.67629 6.02431Z" fill="#F5F5F5"/>
<path d="M7.67629 7.2217L7.74521 7.4506L7.96306 7.45244C7.99128 7.45271 8.00295 7.49256 7.98027 7.51111L7.80502 7.65447L7.87076 7.88451C7.8793 7.91428 7.84865 7.93896 7.82569 7.92076L7.64846 7.78045L7.47124 7.92076C7.44828 7.93892 7.4177 7.91428 7.42617 7.88451L7.49191 7.65447L7.31666 7.51111C7.29398 7.49252 7.30565 7.45271 7.33387 7.45244L7.55172 7.4506L7.62064 7.2217C7.62953 7.19205 7.6674 7.19205 7.67629 7.2217Z" fill="#F5F5F5"/>
<path d="M7.67629 8.41912L7.74521 8.64802L7.96306 8.64986C7.99128 8.65013 8.00295 8.68998 7.98027 8.70853L7.80502 8.85189L7.87076 9.08193C7.8793 9.1117 7.84865 9.13638 7.82569 9.11818L7.64846 8.97787L7.47124 9.11818C7.44828 9.13634 7.4177 9.1117 7.42617 9.08193L7.49191 8.85189L7.31666 8.70853C7.29398 8.68994 7.30565 8.65013 7.33387 8.64986L7.55172 8.64802L7.62064 8.41912C7.62953 8.38951 7.6674 8.38951 7.67629 8.41912Z" fill="#F5F5F5"/>
<path d="M8.51541 4.23977L8.58432 4.46867L8.80218 4.47051C8.83039 4.47078 8.84207 4.51062 8.81939 4.52918L8.64414 4.67254L8.70988 4.90257C8.71841 4.93234 8.68776 4.95702 8.6648 4.93882L8.48758 4.79851L8.31035 4.93882C8.28739 4.95699 8.25681 4.93234 8.26528 4.90257L8.33102 4.67254L8.15577 4.52918C8.13309 4.51058 8.14476 4.47078 8.17298 4.47051L8.39084 4.46867L8.45975 4.23977C8.46864 4.21012 8.50645 4.21012 8.51541 4.23977Z" fill="#F5F5F5"/>
<path d="M8.51541 5.43718L8.58432 5.66609L8.80218 5.66793C8.83039 5.6682 8.84207 5.70804 8.81939 5.7266L8.64414 5.86996L8.70988 6.1C8.71841 6.12976 8.68776 6.15445 8.6648 6.13625L8.48758 5.99593L8.31035 6.13625C8.28739 6.15441 8.25681 6.12976 8.26528 6.1L8.33102 5.86996L8.15577 5.7266C8.13309 5.708 8.14476 5.6682 8.17298 5.66793L8.39084 5.66609L8.45975 5.43718C8.46864 5.40758 8.50645 5.40758 8.51541 5.43718Z" fill="#F5F5F5"/>
<path d="M8.51541 6.63463L8.58432 6.86354L8.80218 6.86538C8.83039 6.86565 8.84207 6.9055 8.81939 6.92405L8.64414 7.06741L8.70988 7.29746C8.71841 7.32722 8.68776 7.35191 8.6648 7.33371L8.48758 7.19339L8.31035 7.33371C8.28739 7.35187 8.25681 7.32722 8.26528 7.29746L8.33102 7.06741L8.15577 6.92405C8.13309 6.90546 8.14476 6.86565 8.17298 6.86538L8.39084 6.86354L8.45975 6.63463C8.46864 6.60502 8.50645 6.60502 8.51541 6.63463Z" fill="#F5F5F5"/>
<path d="M8.51541 7.83205L8.58432 8.06096L8.80218 8.06279C8.83039 8.06307 8.84207 8.10291 8.81939 8.12146L8.64414 8.26482L8.70988 8.49486C8.71841 8.52463 8.68776 8.54932 8.6648 8.53111L8.48758 8.3908L8.31035 8.53111C8.28739 8.54928 8.25681 8.52463 8.26528 8.49486L8.33102 8.26482L8.15577 8.12146C8.13309 8.10287 8.14476 8.06307 8.17298 8.06279L8.39084 8.06096L8.45975 7.83205C8.46864 7.8024 8.50645 7.8024 8.51541 7.83205Z" fill="#F5F5F5"/>
<path d="M8.51541 9.02947L8.58432 9.25838L8.80218 9.26021C8.83039 9.26048 8.84207 9.30033 8.81939 9.31888L8.64414 9.46224L8.70988 9.69228C8.71841 9.72205 8.68776 9.74674 8.6648 9.72853L8.48758 9.58822L8.31035 9.72853C8.28739 9.7467 8.25681 9.72205 8.26528 9.69228L8.33102 9.46224L8.15577 9.31888C8.13309 9.30029 8.14476 9.26048 8.17298 9.26021L8.39084 9.25838L8.45975 9.02947C8.46864 8.99978 8.50645 8.99978 8.51541 9.02947Z" fill="#F5F5F5"/>
</g>
<defs>
<clipPath id="clip0">
<rect width="18.0577" height="20" fill="white" transform="translate(0.927856)"/>
</clipPath>
</defs>
</svg>
