<svg width="14" height="14" viewBox="0 0 14 14" fill="none" xmlns="http://www.w3.org/2000/svg">
<path d="M12.9213 12.7518L9.91284 9.28631C10.6864 8.26788 11.1102 6.98648 11.1102 5.65249C11.1102 2.53576 8.82068 0 6.00663 0C3.19257 0 0.903076 2.53576 0.903076 5.65249C0.903076 8.76923 3.19257 11.305 6.00663 11.305C7.06306 11.305 8.06979 10.9521 8.93052 10.2821L11.9618 13.7739C12.0885 13.9196 12.2589 14 12.4415 14C12.6144 14 12.7784 13.927 12.9029 13.7943C13.1674 13.5124 13.1758 13.045 12.9213 12.7518ZM6.00663 1.47456C8.08666 1.47456 9.77882 3.34873 9.77882 5.65249C9.77882 7.95625 8.08666 9.83043 6.00663 9.83043C3.9266 9.83043 2.23444 7.95625 2.23444 5.65249C2.23444 3.34873 3.9266 1.47456 6.00663 1.47456Z" fill="black"/>
</svg>
